<?xml version="1.0" standalone="no"?>
<!DOCTYPE svg PUBLIC "-//W3C//DTD SVG 20010904//EN"
 "http://www.w3.org/TR/2001/REC-SVG-20010904/DTD/svg10.dtd">
<svg version="1.0" xmlns="http://www.w3.org/2000/svg"
 width="1024.000000pt" height="1024.000000pt" viewBox="0 0 1024.000000 1024.000000"
 preserveAspectRatio="xMidYMid meet">
<metadata>
Created by potrace 1.14, written by Peter Selinger 2001-2017
</metadata>
<g transform="translate(0.000000,1024.000000) scale(0.100000,-0.100000)"
fill="#000000" stroke="none">
<path d="M4829 10236 c-2 -2 -51 -6 -109 -10 -58 -4 -118 -8 -135 -11 -16 -2
-84 -11 -151 -20 -67 -8 -130 -17 -140 -19 -10 -2 -39 -7 -64 -11 -25 -4 -56
-9 -70 -12 -14 -2 -86 -17 -160 -34 -816 -181 -1583 -566 -2220 -1114 -140
-120 -380 -356 -482 -473 -37 -42 -77 -88 -89 -102 -316 -363 -624 -870 -829
-1363 -168 -406 -303 -924 -345 -1332 -4 -33 -8 -67 -10 -75 -19 -75 -28 -757
-12 -930 13 -150 16 -178 34 -310 3 -25 7 -52 8 -60 2 -8 6 -35 10 -60 3 -25
20 -111 36 -192 173 -870 581 -1690 1176 -2368 112 -127 412 -420 543 -529
502 -419 1024 -714 1645 -931 267 -93 674 -189 955 -225 25 -3 61 -8 81 -11
149 -22 375 -32 679 -29 184 2 346 5 360 8 14 3 57 8 95 12 39 3 84 8 100 10
149 21 208 30 324 51 747 137 1477 455 2101 917 284 210 652 555 865 812 607
729 995 1570 1139 2470 23 143 25 153 31 225 4 36 8 70 10 77 27 83 26 890 0
1056 -2 12 -6 49 -10 82 -60 569 -262 1222 -542 1755 -560 1066 -1465 1896
-2578 2363 -382 160 -894 298 -1270 342 -27 3 -61 8 -75 10 -14 2 -54 7 -90
10 -36 4 -85 9 -110 11 -54 6 -695 15 -701 10z"/>
</g>
</svg>
