<?xml version="1.0" standalone="no"?>
<!DOCTYPE svg PUBLIC "-//W3C//DTD SVG 20010904//EN"
 "http://www.w3.org/TR/2001/REC-SVG-20010904/DTD/svg10.dtd">
<svg version="1.0" xmlns="http://www.w3.org/2000/svg"
 width="512.000000pt" height="512.000000pt" viewBox="0 0 512.000000 512.000000"
 preserveAspectRatio="xMidYMid meet">
<metadata>
Created by potrace 1.14, written by Peter Selinger 2001-2017
</metadata>
<g transform="translate(0.000000,512.000000) scale(0.100000,-0.100000)"
fill="#000000" stroke="none">
<path d="M2218 5085 c-5 -6 -82 -18 -115 -19 -13 -1 -23 -5 -23 -9 0 -5 -4 -6
-9 -3 -5 3 -26 0 -47 -7 -22 -7 -46 -13 -54 -12 -8 1 -21 -3 -27 -8 -7 -5 -13
-7 -13 -4 0 4 -18 0 -40 -8 -22 -8 -40 -12 -40 -8 0 3 -6 1 -12 -5 -7 -5 -29
-13 -48 -17 -19 -4 -41 -11 -50 -15 -26 -14 -145 -54 -149 -51 -2 1 -7 -1 -10
-6 -3 -5 -31 -19 -61 -32 -85 -36 -312 -159 -318 -173 -2 -5 -10 -8 -18 -8 -8
0 -14 -4 -14 -10 0 -5 -5 -10 -10 -10 -16 0 -156 -104 -265 -196 -110 -93
-355 -357 -355 -383 0 -6 -4 -11 -8 -11 -11 0 -162 -229 -198 -300 -16 -30
-32 -56 -36 -58 -4 -2 -8 -8 -8 -13 0 -5 -16 -44 -36 -86 -33 -70 -113 -273
-118 -298 -1 -5 -10 -37 -20 -70 -10 -33 -20 -68 -22 -77 -2 -10 -6 -26 -9
-35 -15 -63 -45 -227 -40 -231 3 -3 1 -10 -5 -17 -10 -12 -7 -678 3 -732 4
-18 9 -45 11 -60 18 -109 66 -298 87 -335 5 -10 9 -24 9 -32 0 -7 9 -38 21
-67 12 -30 25 -63 29 -74 4 -11 17 -41 29 -66 11 -25 21 -51 21 -56 0 -6 7
-16 15 -23 8 -7 15 -21 15 -31 0 -11 4 -19 8 -19 5 0 9 -6 9 -12 0 -29 151
-268 249 -395 129 -167 298 -338 450 -453 32 -25 61 -48 64 -51 3 -4 48 -34
100 -67 52 -34 100 -65 105 -69 13 -11 268 -137 320 -158 55 -23 197 -75 215
-80 8 -2 50 -13 92 -25 43 -11 88 -23 100 -26 242 -48 275 -51 563 -52 154 0
305 3 335 9 30 5 73 11 95 15 22 3 60 10 85 16 25 5 56 12 70 14 14 3 50 12
80 20 30 9 60 17 65 19 6 1 17 4 25 8 8 3 58 20 110 37 126 43 311 128 384
175 14 10 26 14 26 11 0 -4 6 -2 13 4 6 6 64 45 128 88 113 74 149 101 248
186 125 105 317 308 355 373 4 9 16 23 25 33 38 43 151 214 151 229 0 6 4 11
8 11 4 0 15 15 23 32 9 18 31 62 50 98 80 152 181 424 205 550 3 14 11 50 19
80 8 30 16 75 19 100 3 25 9 56 13 70 10 38 13 638 3 690 -4 25 -11 65 -15 90
-4 25 -8 50 -9 55 -2 6 -6 28 -11 50 -31 161 -125 434 -197 575 -15 30 -28 60
-28 67 0 7 -4 13 -10 13 -5 0 -10 4 -10 9 0 22 -153 267 -199 320 -12 13 -21
27 -21 31 0 4 -14 21 -30 38 -16 18 -30 34 -30 37 0 2 -15 21 -32 41 -49 56
-258 265 -258 259 0 -3 -11 6 -25 19 -37 37 -222 176 -235 176 -5 0 -10 5 -10
10 0 6 -6 10 -14 10 -8 0 -16 3 -18 8 -3 8 -27 22 -135 83 -40 22 -75 40 -79
39 -4 -1 -10 3 -13 8 -7 11 -219 106 -229 103 -1 -1 -16 6 -32 14 -17 9 -30
13 -30 10 0 -3 -9 -1 -21 5 -45 25 -239 76 -439 116 -40 8 -734 16 -742 9z"/>
</g>
</svg>
